<?xml version="1.0" encoding="UTF-8"?>
<svg id="katman_1" data-name="katman 1" xmlns="http://www.w3.org/2000/svg" version="1.1" xmlns:xlink="http://www.w3.org/1999/xlink" viewBox="0 0 841.89 595.28">
  <defs>
    <style>
      .cls-1 {
        fill: #18e299;
      }

      .cls-1, .cls-2, .cls-3, .cls-4 {
        stroke-width: 0px;
      }

      .cls-2 {
        fill: none;
      }

      .cls-3 {
        fill: #0f4f57;
      }

      .cls-5 {
        clip-path: url(#clippath);
      }

      .cls-4 {
        fill: #0c8c5e;
      }
    </style>
    <clipPath id="clippath">
      <rect class="cls-2" x="72.47" y="221.72" width="144.49" height="144.49"/>
    </clipPath>
  </defs>
  <path class="cls-3" d="M305.65,345.58h-21.47v-96.33h26.28l26.28,70.6,26.15-70.6h26.28v96.33h-21.47v-59.45l-22.16,59.45h-17.75l-22.16-59.45v59.45ZM413.65,265.35c-3.49,0-6.47-1.19-8.94-3.58-2.39-2.48-3.58-5.5-3.58-9.08s1.19-6.42,3.58-8.81c2.48-2.39,5.46-3.58,8.94-3.58s6.56,1.19,8.94,3.58c2.39,2.39,3.58,5.32,3.58,8.81s-1.19,6.61-3.58,9.08c-2.39,2.39-5.37,3.58-8.94,3.58ZM424.25,345.58h-21.19v-72.94h21.19v72.94ZM436.89,345.58v-72.94h17.06l1.79,10.32c2.02-3.85,5.14-6.97,9.36-9.36,4.31-2.39,9.13-3.58,14.45-3.58,7.71,0,13.85,2.48,18.44,7.43,4.68,4.95,7.02,11.61,7.02,19.95v48.16h-21.19v-47.06c0-3.12-1.01-5.6-3.03-7.43-2.02-1.83-4.77-2.75-8.26-2.75-4.13,0-7.57,1.24-10.32,3.72-2.75,2.48-4.13,5.69-4.13,9.63v43.9h-21.19ZM549.09,345.58c-8.72,0-15.41-2.02-20.09-6.06-4.59-4.04-6.88-9.91-6.88-17.61v-31.38h-11.97v-17.89h11.97v-24.91h21.19v24.91h17.89v17.89h-17.89v29.04c0,2.66.69,4.68,2.06,6.06,1.38,1.38,3.35,2.06,5.92,2.06h8.39v17.89h-10.6ZM591.2,345.58h-21.19v-103.21h21.19v103.21ZM614.57,265.35c-3.49,0-6.47-1.19-8.94-3.58-2.39-2.48-3.58-5.5-3.58-9.08s1.19-6.42,3.58-8.81c2.48-2.39,5.46-3.58,8.94-3.58s6.56,1.19,8.94,3.58c2.39,2.39,3.58,5.32,3.58,8.81s-1.19,6.61-3.58,9.08c-2.39,2.39-5.37,3.58-8.94,3.58ZM625.17,345.58h-21.19v-72.94h21.19v72.94ZM645.93,345.58v-55.05h-11.97v-17.89h11.97v-7.98c0-7.25,2.2-12.75,6.61-16.51,4.4-3.85,10.78-5.78,19.13-5.78h15.55v17.89h-13.35c-4.5,0-6.74,2.25-6.74,6.74v5.64h18.72v17.89h-18.72v55.05h-21.19ZM694.89,373.1v-17.89h14.72c4.95,0,8.07-1.74,9.36-5.23l1.65-4.4h-3.17l-28.9-72.94h22.71l18.17,49.13,18.17-49.13h22.02l-30.82,82.71c-2.2,5.96-5.64,10.41-10.32,13.35-4.68,2.94-10.96,4.4-18.85,4.4h-14.72Z"/>
  <g class="cls-5">
    <g>
      <path class="cls-4" d="M110.54,274.45c.1-13.76,5.56-26.94,15.21-36.74h-.02l-37.28,37.28h.02c-.14.11-.27.23-.39.36-9.07,9.05-14.56,21.07-15.48,33.85-.92,12.78,2.8,25.46,10.48,35.72l37.65-37.65.39-.37c-7.02-9.34-10.74-20.75-10.59-32.44Z"/>
      <path class="cls-4" d="M201.06,313.02c-7.13,6.99-16.09,11.84-25.85,13.99-9.76,2.15-19.92,1.51-29.33-1.83-5.02-1.78-9.74-4.32-13.99-7.53l-.39.39-37.65,37.63c10.26,7.66,22.94,11.37,35.71,10.45,12.77-.92,24.79-6.4,33.85-15.45l.37-.37,37.28-37.28Z"/>
      <path class="cls-1" d="M217.04,274.98v-53.26h-53.26c-6.99,0-13.92,1.37-20.38,4.05-6.46,2.68-12.33,6.61-17.27,11.56l-.37.37c-6.51,6.61-11.17,14.81-13.51,23.79,4.23-1.1,8.58-1.68,12.95-1.73,11.69-.14,23.09,3.59,32.44,10.61,8.4,6.27,14.76,14.88,18.27,24.75,3.58,10.09,4.05,21.03,1.35,31.39,8.98-2.33,17.18-6.99,23.79-13.51l.37-.36c4.95-4.94,8.88-10.81,11.56-17.28,2.68-6.46,4.05-13.4,4.04-20.39Z"/>
    </g>
  </g>
</svg>